<?xml version="1.0" encoding="utf-8"?>
<svg id="master-artboard" viewBox="0 0 1096 780" version="1.1" xmlns="http://www.w3.org/2000/svg" x="0px" y="0px" style="enable-background:new 0 0 1096 780;" width="1096px" height="780px">

<g>
	<path d="M 0 0 H 1096 V 780 H 0 V 0 Z" class="st0" style="fill: rgb(64, 100, 112);"/>
</g>
<path d="M 121.80000305175781 139.8000030517578 L 112 144.60000610351562 L 113.5 133.8000030517578 L 106 126 L 116.69999694824219 124.0999984741211 L 121.80000305175781 114.5 L 126.9000015258789 124.0999984741211 L 137.60000610351562 126 L 130 133.8000030517578 L 131.5 144.60000610351562 Z" class="st1" style="fill: rgb(255, 241, 0);"/>
<path d="M 453.70001220703125 460.20001220703125 L 443.8999938964844 464.8999938964844 L 445.3999938964844 454.20001220703125 L 437.8999938964844 446.3999938964844 L 448.6000061035156 444.5 L 453.70001220703125 434.8999938964844 L 458.79998779296875 444.5 L 469.5 446.3999938964844 L 461.8999938964844 454.20001220703125 L 463.3999938964844 464.8999938964844 Z" class="st1" style="fill: rgb(255, 241, 0);"/>
<path d="M 695.7000122070312 434.70001220703125 L 686 439.5 L 687.5 428.70001220703125 L 679.9000244140625 420.8999938964844 L 690.5999755859375 419 L 695.7000122070312 409.3999938964844 L 700.7999877929688 419 L 711.5 420.8999938964844 L 704 428.70001220703125 L 705.5 439.5 Z" class="st1" style="fill: rgb(255, 241, 0);"/>
<path d="M 711.5 102 L 701.7000122070312 106.69999694824219 L 703.2000122070312 96 L 695.7000122070312 88.19999694824219 L 706.4000244140625 86.30000305175781 L 711.5 76.69999694824219 L 716.5999755859375 86.30000305175781 L 727.2999877929688 88.19999694824219 L 719.7000122070312 96 L 721.2000122070312 106.69999694824219 Z" class="st1" style="fill: rgb(255, 241, 0);"/>
<path d="M 840.2999877929688 190.8000030517578 L 830.5999755859375 195.60000610351562 L 832.0999755859375 184.8000030517578 L 824.5999755859375 177 L 835.2000122070312 175.10000610351562 L 840.2999877929688 165.60000610351562 L 845.4000244140625 175.10000610351562 L 856.0999755859375 177 L 848.5999755859375 184.8000030517578 L 850.0999755859375 195.60000610351562 Z" class="st1" style="fill: rgb(255, 241, 0);"/>
<path d="M 246.3000030517578 193.1999969482422 L 241.5 195.60000610351562 L 242.1999969482422 190.1999969482422 L 238.5 186.3000030517578 L 243.8000030517578 185.39999389648438 L 246.3000030517578 180.60000610351562 L 248.89999389648438 185.39999389648438 L 254.1999969482422 186.3000030517578 L 250.5 190.1999969482422 L 251.1999969482422 195.60000610351562 Z" class="st1" style="fill: rgb(255, 241, 0);"/>
<path d="M 544 368.1000061035156 L 539.2000122070312 370.3999938964844 L 539.9000244140625 365.1000061035156 L 536.2000122070312 361.20001220703125 L 541.5 360.20001220703125 L 544 355.3999938964844 L 546.5999755859375 360.20001220703125 L 551.9000244140625 361.20001220703125 L 548.2000122070312 365.1000061035156 L 548.9000244140625 370.3999938964844 Z" class="st1" style="fill: rgb(255, 241, 0);"/>
<path d="M 964.7000122070312 89.4000015258789 L 959.7999877929688 91.69999694824219 L 960.5999755859375 86.4000015258789 L 956.7999877929688 82.5 L 962.2000122070312 81.5 L 964.7000122070312 76.69999694824219 L 967.2999877929688 81.5 L 972.5999755859375 82.5 L 968.7999877929688 86.4000015258789 L 969.5999755859375 91.69999694824219 Z" class="st1" style="fill: rgb(255, 241, 0);"/>
<path d="M 1005.2000122070312 261.79998779296875 L 1000.2999877929688 264.20001220703125 L 1001.0999755859375 258.79998779296875 L 997.2999877929688 254.89999389648438 L 1002.5999755859375 254 L 1005.2000122070312 249.1999969482422 L 1007.7000122070312 254 L 1013.0999755859375 254.89999389648438 L 1009.2999877929688 258.79998779296875 L 1010.0999755859375 264.20001220703125 Z" class="st1" style="fill: rgb(255, 241, 0);"/>
<path d="M 389.5 92.30000305175781 L 384.6000061035156 94.69999694824219 L 385.29998779296875 89.30000305175781 L 381.6000061035156 85.4000015258789 L 386.8999938964844 84.5 L 389.5 79.69999694824219 L 392 84.5 L 397.3999938964844 85.4000015258789 L 393.6000061035156 89.30000305175781 L 394.29998779296875 94.69999694824219 Z" class="st1" style="fill: rgb(255, 241, 0);"/>
<path d="M 200.39999389648438 537.7999877929688 L 195.60000610351562 540.2000122070312 L 196.3000030517578 534.7999877929688 L 192.60000610351562 530.9000244140625 L 197.89999389648438 530 L 200.39999389648438 525.2000122070312 L 203 530 L 208.3000030517578 530.9000244140625 L 204.60000610351562 534.7999877929688 L 205.3000030517578 540.2000122070312 Z" class="st1" style="fill: rgb(255, 241, 0);"/>
<path d="M 856.0999755859375 462.5 L 851.2000122070312 464.8999938964844 L 852 459.5 L 848.2000122070312 455.6000061035156 L 853.5999755859375 454.70001220703125 L 856.0999755859375 449.8999938964844 L 858.7000122070312 454.70001220703125 L 864 455.6000061035156 L 860.2000122070312 459.5 L 861 464.8999938964844 Z" class="st1" style="fill: rgb(255, 241, 0);"/>
<path d="M 98.19999694824219 282.5 L 91.80000305175781 285.6000061035156 L 92.69999694824219 278.6000061035156 L 87.80000305175781 273.3999938964844 L 94.80000305175781 272.20001220703125 L 98.19999694824219 265.8999938964844 L 101.5 272.20001220703125 L 108.5999984741211 273.3999938964844 L 103.5999984741211 278.6000061035156 L 104.5999984741211 285.6000061035156 Z" class="st1" style="fill: rgb(255, 241, 0);"/>
<path d="M 554.4000244140625 83.5 L 548 86.5999984741211 L 549 79.5 L 544 74.4000015258789 L 551.0999755859375 73.0999984741211 L 554.4000244140625 66.9000015258789 L 557.7999877929688 73.0999984741211 L 564.7999877929688 74.4000015258789 L 559.9000244140625 79.5 L 560.7999877929688 86.5999984741211 Z" class="st1" style="fill: rgb(255, 241, 0);"/>
<path d="M 495.5 175.10000610351562 L 489.1000061035156 178.1999969482422 L 490.1000061035156 171.10000610351562 L 485.1000061035156 166 L 492.20001220703125 164.6999969482422 L 495.5 158.5 L 498.8999938964844 164.6999969482422 L 505.8999938964844 166 L 500.8999938964844 171.10000610351562 L 501.8999938964844 178.1999969482422 Z" class="st1" style="fill: rgb(255, 241, 0);"/>
<path d="M 326.5 441.1000061035156 L 320.1000061035156 444.20001220703125 L 321.1000061035156 437.1000061035156 L 316.1000061035156 432 L 323.1000061035156 430.79998779296875 L 326.5 424.5 L 329.79998779296875 430.79998779296875 L 336.8999938964844 432 L 331.8999938964844 437.1000061035156 L 332.8999938964844 444.20001220703125 Z" class="st1" style="fill: rgb(255, 241, 0);"/>
<path class="st2" d="M1096,516.7c-2.4,0-4.7-0.1-7.1-0.1C898.5,516.7,732.7,623,646.4,780H1096V516.7z" style="fill: rgb(38, 66, 75);"/>
<path class="st3" d="M570.6,487.4c0,2.4-2,4.4-4.4,4.4h-4.1c-2.4,0-4.4-2-4.4-4.4v-75c0-2.4,2-4.4,4.4-4.4h4.1c2.4,0,4.4,2,4.4,4.4&#10;&#9;V487.4z" style="fill: rgb(82, 51, 20);"/>
<path class="st4" d="M1012.5,780C933,603.7,757.3,481.3,553.5,481.3S174,603.7,94.4,780H1012.5z" style="fill: rgb(41, 71, 80);"/>
<path class="st5" d="M0,780h575.5c-91.4-127.1-239.3-209.8-406.1-209.8C110,570.2,52.9,580.8,0,600V780z" style="fill: rgb(48, 79, 89);"/>
<g>
	<g>
		<path class="st6" d="M646.4,586.6c-3.3,0-6.1-2.4-6.6-5.8c-13.3-105.9-77.1-150.4-77.7-150.9c-3-2.1-3.8-6.2-1.8-9.2&#10;&#9;&#9;&#9;c2-3,6.1-3.8,9.2-1.8c2.8,1.9,69.4,47.9,83.5,160.2c0.5,3.6-2.1,6.9-5.7,7.4C646.9,586.6,646.7,586.6,646.4,586.6z" style="fill: rgb(95, 61, 29);"/>
	</g>
</g>
<g>
	<g>
		<path class="st6" d="M646.4,672.6c-3,0-5.8-2.1-6.5-5.2C601,489.2,563,464.4,562.7,464.2c-3.2-1.7-4.4-5.7-2.7-9&#10;&#9;&#9;&#9;c1.7-3.2,5.7-4.4,9-2.7c4.4,2.3,43.8,28.1,83.9,212c0.8,3.6-1.5,7.1-5,7.9C647.3,672.5,646.8,672.6,646.4,672.6z" style="fill: rgb(95, 61, 29);"/>
	</g>
</g>
<path class="st7" d="M660.2,711c0,5.2-4.2,9.4-9.4,9.4H642c-5.2,0-9.4-4.2-9.4-9.4V550.3c0-5.2,4.2-9.4,9.4-9.4h8.8&#10;&#9;c5.2,0,9.4,4.2,9.4,9.4V711z" style="fill: rgb(109, 70, 37);"/>








</svg>