<?xml version="1.0" encoding="utf-8"?>
<svg id="master-artboard" viewBox="0 0 1096 780" version="1.1" xmlns="http://www.w3.org/2000/svg" x="0px" y="0px" style="enable-background:new 0 0 1096 780;" width="1096px" height="780px">

<g>
	<path d="M 0 0 H 1096 V 780 H 0 V 0 Z" class="st0" style="fill: rgb(64, 100, 112);"/>
</g>
<path d="M 121.80000305175781 139.8000030517578 L 112 144.60000610351562 L 113.5 133.8000030517578 L 106 126 L 116.69999694824219 124.0999984741211 L 121.80000305175781 114.5 L 126.9000015258789 124.0999984741211 L 137.60000610351562 126 L 130 133.8000030517578 L 131.5 144.60000610351562 Z" class="st1" style="fill: rgb(255, 241, 0);"/>
<path d="M 453.70001220703125 460.20001220703125 L 443.8999938964844 464.8999938964844 L 445.3999938964844 454.20001220703125 L 437.8999938964844 446.3999938964844 L 448.6000061035156 444.5 L 453.70001220703125 434.8999938964844 L 458.79998779296875 444.5 L 469.5 446.3999938964844 L 461.8999938964844 454.20001220703125 L 463.3999938964844 464.8999938964844 Z" class="st1" style="fill: rgb(255, 241, 0);"/>
<path d="M 695.7000122070312 434.70001220703125 L 686 439.5 L 687.5 428.70001220703125 L 679.9000244140625 420.8999938964844 L 690.5999755859375 419 L 695.7000122070312 409.3999938964844 L 700.7999877929688 419 L 711.5 420.8999938964844 L 704 428.70001220703125 L 705.5 439.5 Z" class="st1" style="fill: rgb(255, 241, 0);"/>
<path d="M 711.5 102 L 701.7000122070312 106.69999694824219 L 703.2000122070312 96 L 695.7000122070312 88.19999694824219 L 706.4000244140625 86.30000305175781 L 711.5 76.69999694824219 L 716.5999755859375 86.30000305175781 L 727.2999877929688 88.19999694824219 L 719.7000122070312 96 L 721.2000122070312 106.69999694824219 Z" class="st1" style="fill: rgb(255, 241, 0);"/>
<path d="M 840.2999877929688 190.8000030517578 L 830.5999755859375 195.60000610351562 L 832.0999755859375 184.8000030517578 L 824.5999755859375 177 L 835.2000122070312 175.10000610351562 L 840.2999877929688 165.60000610351562 L 845.4000244140625 175.10000610351562 L 856.0999755859375 177 L 848.5999755859375 184.8000030517578 L 850.0999755859375 195.60000610351562 Z" class="st1" style="fill: rgb(255, 241, 0);"/>
<path d="M 246.3000030517578 193.1999969482422 L 241.5 195.60000610351562 L 242.1999969482422 190.1999969482422 L 238.5 186.3000030517578 L 243.8000030517578 185.39999389648438 L 246.3000030517578 180.60000610351562 L 248.89999389648438 185.39999389648438 L 254.1999969482422 186.3000030517578 L 250.5 190.1999969482422 L 251.1999969482422 195.60000610351562 Z" class="st1" style="fill: rgb(255, 241, 0);"/>
<path d="M 544 368.1000061035156 L 539.2000122070312 370.3999938964844 L 539.9000244140625 365.1000061035156 L 536.2000122070312 361.20001220703125 L 541.5 360.20001220703125 L 544 355.3999938964844 L 546.5999755859375 360.20001220703125 L 551.9000244140625 361.20001220703125 L 548.2000122070312 365.1000061035156 L 548.9000244140625 370.3999938964844 Z" class="st1" style="fill: rgb(255, 241, 0);"/>
<path d="M 964.7000122070312 89.4000015258789 L 959.7999877929688 91.69999694824219 L 960.5999755859375 86.4000015258789 L 956.7999877929688 82.5 L 962.2000122070312 81.5 L 964.7000122070312 76.69999694824219 L 967.2999877929688 81.5 L 972.5999755859375 82.5 L 968.7999877929688 86.4000015258789 L 969.5999755859375 91.69999694824219 Z" class="st1" style="fill: rgb(255, 241, 0);"/>
<path d="M 1005.2000122070312 261.79998779296875 L 1000.2999877929688 264.20001220703125 L 1001.0999755859375 258.79998779296875 L 997.2999877929688 254.89999389648438 L 1002.5999755859375 254 L 1005.2000122070312 249.1999969482422 L 1007.7000122070312 254 L 1013.0999755859375 254.89999389648438 L 1009.2999877929688 258.79998779296875 L 1010.0999755859375 264.20001220703125 Z" class="st1" style="fill: rgb(255, 241, 0);"/>
<path d="M 389.5 92.30000305175781 L 384.6000061035156 94.69999694824219 L 385.29998779296875 89.30000305175781 L 381.6000061035156 85.4000015258789 L 386.8999938964844 84.5 L 389.5 79.69999694824219 L 392 84.5 L 397.3999938964844 85.4000015258789 L 393.6000061035156 89.30000305175781 L 394.29998779296875 94.69999694824219 Z" class="st1" style="fill: rgb(255, 241, 0);"/>
<path d="M 200.39999389648438 537.7999877929688 L 195.60000610351562 540.2000122070312 L 196.3000030517578 534.7999877929688 L 192.60000610351562 530.9000244140625 L 197.89999389648438 530 L 200.39999389648438 525.2000122070312 L 203 530 L 208.3000030517578 530.9000244140625 L 204.60000610351562 534.7999877929688 L 205.3000030517578 540.2000122070312 Z" class="st1" style="fill: rgb(255, 241, 0);"/>
<path d="M 856.0999755859375 462.5 L 851.2000122070312 464.8999938964844 L 852 459.5 L 848.2000122070312 455.6000061035156 L 853.5999755859375 454.70001220703125 L 856.0999755859375 449.8999938964844 L 858.7000122070312 454.70001220703125 L 864 455.6000061035156 L 860.2000122070312 459.5 L 861 464.8999938964844 Z" class="st1" style="fill: rgb(255, 241, 0);"/>
<path d="M 98.19999694824219 282.5 L 91.80000305175781 285.6000061035156 L 92.69999694824219 278.6000061035156 L 87.80000305175781 273.3999938964844 L 94.80000305175781 272.20001220703125 L 98.19999694824219 265.8999938964844 L 101.5 272.20001220703125 L 108.5999984741211 273.3999938964844 L 103.5999984741211 278.6000061035156 L 104.5999984741211 285.6000061035156 Z" class="st1" style="fill: rgb(255, 241, 0);"/>
<path d="M 554.4000244140625 83.5 L 548 86.5999984741211 L 549 79.5 L 544 74.4000015258789 L 551.0999755859375 73.0999984741211 L 554.4000244140625 66.9000015258789 L 557.7999877929688 73.0999984741211 L 564.7999877929688 74.4000015258789 L 559.9000244140625 79.5 L 560.7999877929688 86.5999984741211 Z" class="st1" style="fill: rgb(255, 241, 0);"/>
<path d="M 495.5 175.10000610351562 L 489.1000061035156 178.1999969482422 L 490.1000061035156 171.10000610351562 L 485.1000061035156 166 L 492.20001220703125 164.6999969482422 L 495.5 158.5 L 498.8999938964844 164.6999969482422 L 505.8999938964844 166 L 500.8999938964844 171.10000610351562 L 501.8999938964844 178.1999969482422 Z" class="st1" style="fill: rgb(255, 241, 0);"/>
<path d="M 326.5 441.1000061035156 L 320.1000061035156 444.20001220703125 L 321.1000061035156 437.1000061035156 L 316.1000061035156 432 L 323.1000061035156 430.79998779296875 L 326.5 424.5 L 329.79998779296875 430.79998779296875 L 336.8999938964844 432 L 331.8999938964844 437.1000061035156 L 332.8999938964844 444.20001220703125 Z" class="st1" style="fill: rgb(255, 241, 0);"/>
<path class="st2" d="M1096,516.7c-2.4,0-4.7-0.1-7.1-0.1C898.5,516.7,732.7,623,646.4,780H1096V516.7z" style="fill: rgb(38, 66, 75);"/>
<path class="st3" d="M570.6,487.4c0,2.4-2,4.4-4.4,4.4h-4.1c-2.4,0-4.4-2-4.4-4.4v-75c0-2.4,2-4.4,4.4-4.4h4.1c2.4,0,4.4,2,4.4,4.4&#10;&#9;V487.4z" style="fill: rgb(82, 51, 20);"/>
<path class="st4" d="M1012.5,780C933,603.7,757.3,481.3,553.5,481.3S174,603.7,94.4,780H1012.5z" style="fill: rgb(41, 71, 80);"/>
<path class="st5" d="M0,780h575.5c-91.4-127.1-239.3-209.8-406.1-209.8C110,570.2,52.9,580.8,0,600V780z" style="fill: rgb(48, 79, 89);"/>
<g>
	<g>
		<path class="st6" d="M646.4,586.6c-3.3,0-6.1-2.4-6.6-5.8c-13.3-105.9-77.1-150.4-77.7-150.9c-3-2.1-3.8-6.2-1.8-9.2&#10;&#9;&#9;&#9;c2-3,6.1-3.8,9.2-1.8c2.8,1.9,69.4,47.9,83.5,160.2c0.5,3.6-2.1,6.9-5.7,7.4C646.9,586.6,646.7,586.6,646.4,586.6z" style="fill: rgb(95, 61, 29);"/>
	</g>
</g>
<g>
	<g>
		<path class="st6" d="M646.4,672.6c-3,0-5.8-2.1-6.5-5.2C601,489.2,563,464.4,562.7,464.2c-3.2-1.7-4.4-5.7-2.7-9&#10;&#9;&#9;&#9;c1.7-3.2,5.7-4.4,9-2.7c4.4,2.3,43.8,28.1,83.9,212c0.8,3.6-1.5,7.1-5,7.9C647.3,672.5,646.8,672.6,646.4,672.6z" style="fill: rgb(95, 61, 29);"/>
	</g>
</g>
<path class="st7" d="M660.2,711c0,5.2-4.2,9.4-9.4,9.4H642c-5.2,0-9.4-4.2-9.4-9.4V550.3c0-5.2,4.2-9.4,9.4-9.4h8.8&#10;&#9;c5.2,0,9.4,4.2,9.4,9.4V711z" style="fill: rgb(109, 70, 37);"/>
<g>
	<path class="st8" d="M157.8,355.9c0,0,15.5-6.1,31.9,18.3c0,0,3.1,4.7-2.6,5.7l-5.2-1.1c0,0,2.8,3.8,0.8,5.9c0,0-1.6,2.9-7.8,1.4&#10;&#9;&#9;c0,0-15.8,1.4-17.5,3.9c0,0-12.2-9.6-9.3-18.4C148.1,371.6,147.8,359.3,157.8,355.9z" style="fill: rgb(35, 31, 32);"/>
	<path class="st9" d="M168.8,361.1c0.6,1.1,0.2,2.5-0.9,3.1c-1.1,0.6-2.5,0.2-3.1-0.9c-0.6-1.1-0.2-2.5,0.9-3.1&#10;&#9;&#9;C166.8,359.6,168.2,360,168.8,361.1z" style="fill: rgb(255, 255, 255);"/>
</g>
<g>
	<path class="st8" d="M87.8,477.6c-0.5,0-1-0.1-1.5-0.4c-17.5-10.8-17.8-41.6-17.8-42.9c0-1.6,1.3-2.8,2.8-2.8c0,0,0,0,0,0&#10;&#9;&#9;c1.6,0,2.8,1.3,2.8,2.8c0,0.3,0.3,28.9,15.1,38.1c1.3,0.8,1.7,2.6,0.9,3.9C89.7,477.1,88.7,477.6,87.8,477.6z" style="fill: rgb(35, 31, 32);"/>
</g>
<g>
	<path class="st8" d="M106,460.2c-0.4,0-0.7-0.1-1.1-0.2c-13.6-5.5-13.4-20.6-13.4-21.2c0-1.5,1.3-2.8,2.8-2.8c0,0,0.1,0,0.1,0&#10;&#9;&#9;c1.6,0,2.8,1.3,2.8,2.9c0,0.5-0.1,11.8,9.8,15.8c1.5,0.6,2.2,2.2,1.6,3.7C108.2,459.6,107.1,460.2,106,460.2z" style="fill: rgb(35, 31, 32);"/>
</g>
<g>
	<path class="st8" d="M151.4,434.8c-1.2,0-2.2-0.7-2.7-1.9c-1.9-5.3-11.2-17.1-14.6-21.2c-1-1.2-0.8-3,0.4-4c1.2-1,3-0.8,4,0.4&#10;&#9;&#9;c0.5,0.6,13,15.6,15.6,22.9c0.5,1.5-0.2,3.1-1.7,3.6C152,434.7,151.7,434.8,151.4,434.8z" style="fill: rgb(35, 31, 32);"/>
</g>
<g>
	<path class="st8" d="M162.2,407.7c-0.3,0-0.6,0-0.9-0.1c-14.5-4.7-21.9-15.5-22.3-16c-0.9-1.3-0.5-3.1,0.8-3.9&#10;&#9;&#9;c1.3-0.9,3.1-0.5,3.9,0.8c0.1,0.1,6.8,9.7,19.3,13.8c1.5,0.5,2.3,2.1,1.8,3.6C164.5,406.9,163.4,407.7,162.2,407.7z" style="fill: rgb(35, 31, 32);"/>
</g>
<g>
	<path class="st8" d="M238.5,367.3c-0.2,0-0.5,0-0.7-0.1c-1.5-0.4-2.4-2-2-3.5c2.5-9.5,0-30.1-0.1-30.3c-0.2-1.6,0.9-3,2.5-3.2&#10;&#9;&#9;c1.5-0.2,3,0.9,3.2,2.5c0.1,0.9,2.7,21.9-0.1,32.5C240.9,366.5,239.7,367.3,238.5,367.3z" style="fill: rgb(35, 31, 32);"/>
</g>
<g>
	<path class="st8" d="M262.2,365c-1,0-1.9-0.5-2.4-1.4c-5.9-9.6-8.2-20.9-8.3-21.3c-0.3-1.5,0.7-3,2.2-3.3c1.5-0.3,3,0.7,3.3,2.2&#10;&#9;&#9;c0,0.1,2.3,10.8,7.6,19.5c0.8,1.3,0.4,3.1-0.9,3.9C263.2,364.9,262.7,365,262.2,365z" style="fill: rgb(35, 31, 32);"/>
</g>
<g>
	<path class="st8" d="M326.5,355.5c-0.5,0-1-0.1-1.5-0.4c-11.1-6.9-11.7-32.3-11.7-35.2c0-1.6,1.2-2.8,2.8-2.9&#10;&#9;&#9;c1.6-0.1,2.8,1.2,2.9,2.8c0.1,7,1.9,26,9,30.4c1.3,0.8,1.7,2.6,0.9,3.9C328.4,355,327.4,355.5,326.5,355.5z" style="fill: rgb(35, 31, 32);"/>
</g>
<g>
	<path class="st8" d="M347,333.4c-9.6,0-20.8-18.6-23-22.4c-0.8-1.4-0.3-3.1,1-3.9c1.4-0.8,3.1-0.3,3.9,1&#10;&#9;&#9;c4.6,7.9,13.5,19.5,18.1,19.5c1.6,0,2.8,1.3,2.8,2.8C349.9,332.1,348.6,333.4,347,333.4z" style="fill: rgb(35, 31, 32);"/>
</g>
<g>
	<path class="st8" d="M421.6,316.2c-0.9,0-1.7-0.4-2.3-1.1c-0.9-1.3-0.7-3,0.6-4c10.7-8,10.8-25.3,10.8-25.5c0-1.6,1.3-2.8,2.8-2.8&#10;&#9;&#9;c0,0,0,0,0,0c1.6,0,2.8,1.3,2.8,2.8c0,0.8-0.1,20.3-13.1,30C422.8,316,422.2,316.2,421.6,316.2z" style="fill: rgb(35, 31, 32);"/>
</g>
<g>
	<path class="st8" d="M450.5,322.7c-0.7,0-1.5-0.3-2-0.8c-4.9-4.9-2.2-23.2-0.8-30.9c0.3-1.5,1.8-2.6,3.3-2.3&#10;&#9;&#9;c1.5,0.3,2.6,1.8,2.3,3.3c-2.2,12-2.6,24-0.8,25.8c1.1,1.1,1.1,2.9,0,4C452,322.4,451.3,322.7,450.5,322.7z" style="fill: rgb(35, 31, 32);"/>
</g>
<g>
	<path class="st8" d="M512.3,329c-0.4,0-0.9-0.1-1.3-0.3c-1.4-0.7-1.9-2.4-1.2-3.8c4.5-8.5-6.9-25.6-11.7-31.5c-1-1.2-0.8-3,0.4-4&#10;&#9;&#9;c1.2-1,3-0.8,4,0.4c2,2.5,19.2,24.5,12.3,37.7C514.3,328.4,513.3,329,512.3,329z" style="fill: rgb(35, 31, 32);"/>
</g>
<g>
	<path class="st8" d="M536.2,312.4c-0.4,0-0.9-0.1-1.3-0.3c-15.2-7.8-16-31.5-16-32.5c0-1.6,1.2-2.9,2.8-2.9c1.6,0,2.9,1.2,2.9,2.8&#10;&#9;&#9;c0,0.2,0.7,21.4,12.9,27.6c1.4,0.7,2,2.4,1.2,3.8C538.2,311.9,537.2,312.4,536.2,312.4z" style="fill: rgb(35, 31, 32);"/>
</g>
<g>
	<path class="st8" d="M606.1,310.2c-0.7,0-1.4-0.3-2-0.8c-1.1-1.1-1.2-2.9-0.1-4c10.4-10.9,11.2-31,11.2-31.2&#10;&#9;&#9;c0.1-1.6,1.4-2.8,2.9-2.7c1.6,0.1,2.8,1.4,2.7,2.9c0,0.9-0.9,22.5-12.8,35C607.6,309.9,606.8,310.2,606.1,310.2z" style="fill: rgb(35, 31, 32);"/>
</g>
<g>
	<path class="st8" d="M632.5,329c-0.9,0-1.9-0.5-2.4-1.3c-10.3-16.4,4.4-42.3,5-43.4c0.8-1.4,2.5-1.8,3.9-1c1.4,0.8,1.8,2.5,1,3.9&#10;&#9;&#9;c-0.1,0.2-13.6,24.1-5.2,37.6c0.8,1.3,0.4,3.1-0.9,3.9C633.6,328.8,633,329,632.5,329z" style="fill: rgb(35, 31, 32);"/>
</g>
<g>
	<path class="st8" d="M689.3,316.2c-0.4,0-0.9-0.1-1.3-0.3c-1.4-0.7-1.9-2.4-1.2-3.8c3.8-7.2,1.1-25.5-0.3-31.9&#10;&#9;&#9;c-0.3-1.5,0.7-3,2.2-3.4c1.5-0.3,3,0.7,3.4,2.2c0.5,2.6,5.1,25.5-0.3,35.7C691.3,315.6,690.3,316.2,689.3,316.2z" style="fill: rgb(35, 31, 32);"/>
</g>
<g>
	<path class="st8" d="M711.5,312.4c-0.6,0-1.3-0.2-1.8-0.7c-10-8.3-12.4-28-12.5-28.8c-0.2-1.6,0.9-3,2.5-3.1c1.6-0.2,3,0.9,3.1,2.5&#10;&#9;&#9;c0,0.2,2.2,18.2,10.5,25.1c1.2,1,1.4,2.8,0.4,4C713.1,312.1,712.3,312.4,711.5,312.4z" style="fill: rgb(35, 31, 32);"/>
</g>
<g>
	<path class="st8" d="M782.5,338.4c-1.2,0-2.3-0.7-2.7-1.9c-0.5-1.5,0.3-3.1,1.7-3.6c8.1-2.9,19.5-16.3,23.2-21.2&#10;&#9;&#9;c0.9-1.2,2.7-1.5,4-0.6c1.3,0.9,1.5,2.7,0.6,4c-0.6,0.8-14.5,19.2-25.9,23.2C783.1,338.4,782.8,338.4,782.5,338.4z" style="fill: rgb(35, 31, 32);"/>
</g>
<g>
	<path class="st8" d="M807.1,358.3c-1.3,0-2.5-0.9-2.8-2.3c-4.1-19.9,10.4-33.1,11-33.6c1.2-1,3-0.9,4,0.2c1,1.2,0.9,3-0.2,4l0,0&#10;&#9;&#9;c-0.5,0.5-12.6,11.6-9.2,28.3c0.3,1.5-0.7,3-2.2,3.3C807.4,358.3,807.2,358.3,807.1,358.3z" style="fill: rgb(35, 31, 32);"/>
</g>
<g>
	<path class="st8" d="M848.2,376.8c-1.2,0-2.3-0.8-2.7-2c-0.5-1.5,0.4-3.1,1.9-3.6c10-3.1,13.4-19.7,13.8-25.8&#10;&#9;&#9;c0.1-1.6,1.4-2.8,3-2.6c1.6,0.1,2.7,1.5,2.6,3c-0.1,1.1-2,25.9-17.8,30.8C848.8,376.8,848.5,376.8,848.2,376.8z" style="fill: rgb(35, 31, 32);"/>
</g>
<g>
	<path class="st8" d="M874.5,382.5c-1.2,0-2.3-0.7-2.7-1.9c-4-11.4-0.2-25.4-0.1-25.9c0.4-1.5,2-2.4,3.5-2c1.5,0.4,2.4,2,2,3.5&#10;&#9;&#9;c0,0.1-3.5,12.8-0.1,22.5c0.5,1.5-0.3,3.1-1.7,3.6C875.1,382.5,874.8,382.5,874.5,382.5z" style="fill: rgb(35, 31, 32);"/>
</g>
<g>
	<path class="st8" d="M931.8,420.7c-1.5,0-2.8-1.2-2.8-2.8c0-1.6,1.2-2.9,2.8-2.9c15.3-0.2,26-15.4,26.1-15.5&#10;&#9;&#9;c0.9-1.3,2.7-1.6,3.9-0.7c1.3,0.9,1.6,2.7,0.7,3.9C962,403.4,950.1,420.4,931.8,420.7C931.8,420.7,931.8,420.7,931.8,420.7z" style="fill: rgb(35, 31, 32);"/>
</g>
<g>
	<path class="st8" d="M948.5,437.7c-0.3,0-0.7-0.1-1-0.2c-1.5-0.5-2.2-2.2-1.7-3.6c5.7-15.7,20.2-21.4,20.9-21.6&#10;&#9;&#9;c1.5-0.6,3.1,0.2,3.7,1.6c0.6,1.5-0.2,3.1-1.6,3.7l0,0c-0.1,0-12.7,5-17.5,18.3C950.7,437,949.6,437.7,948.5,437.7z" style="fill: rgb(35, 31, 32);"/>
</g>
<g>
	<path class="st8" d="M1009.3,470.7c-1.4,0-2.6-1-2.8-2.4c-2-13.4,8.7-33.8,9.1-34.7c0.7-1.4,2.4-1.9,3.8-1.2&#10;&#9;&#9;c1.4,0.7,1.9,2.4,1.2,3.8c-0.1,0.2-10.3,19.7-8.5,31.2c0.2,1.5-0.8,3-2.4,3.2C1009.5,470.7,1009.4,470.7,1009.3,470.7z" style="fill: rgb(35, 31, 32);"/>
</g>
<g>
	<path class="st8" d="M1028.8,474.5c-1.3,0-2.5-0.9-2.8-2.2c-4-18.6,2.7-28.3,3-28.7c0.9-1.3,2.7-1.6,4-0.7c1.3,0.9,1.6,2.7,0.7,3.9&#10;&#9;&#9;c-0.1,0.2-5.5,8.3-2.1,24.2c0.3,1.5-0.7,3-2.2,3.4C1029.2,474.5,1029,474.5,1028.8,474.5z" style="fill: rgb(35, 31, 32);"/>
</g>
<path class="st10" d="M157.7,392.4c1.3-3.9,0.6-7.9-1.5-11.1c1.6-1.3,2.9-3.1,3.6-5.2c1-3.1,0.6-6.2-0.8-8.9c1.1-1.2,2-2.6,2.6-4.3&#10;&#9;c2-6-1.3-12.5-7.3-14.5c-4-1.3-8.2-0.3-11.2,2.3c-0.9-2.4-2.9-4.3-5.5-5.2c-2.3-0.8-4.8-0.5-6.8,0.5c-1.4-1.7-3.3-3-5.5-3.7&#10;&#9;c-5.5-1.8-11.5,0.5-14.4,5.3c-1-0.9-2.2-1.6-3.6-2c-5.7-1.9-11.8,1.2-13.7,6.9c-1,2.9-0.6,5.9,0.7,8.4c-0.5,0.6-0.9,1.2-1.2,1.8&#10;&#9;c-1.8-2.2-4.3-3.9-7.2-4.8c-8.4-2.8-17.6,1.8-20.4,10.2c-1,3.1-1.1,6.3-0.3,9.2c-1.1,0.8-2,1.8-2.8,3c-1.2-1.1-2.6-1.9-4.1-2.4&#10;&#9;c-6.1-2-12.6,1.3-14.6,7.3c-0.4,1.1-0.6,2.2-0.6,3.3c-3.8,1.1-7.1,4-8.4,8c-1.8,5.3,0.3,11,4.7,14.1c-0.3,0.6-0.6,1.2-0.8,1.9&#10;&#9;c-2.1,6.3,1.3,13.2,7.7,15.3c0.3,0.1,0.5,0.2,0.8,0.2c-0.7,1-1.3,2.1-1.7,3.4c-2.2,6.5,1.4,13.5,7.9,15.7c2.1,0.7,4.2,0.8,6.2,0.4&#10;&#9;c0.8,4.2,3.8,7.8,8.1,9.2c5.8,1.9,12.1-0.8,14.7-6.2c0.8,0.5,1.7,0.9,2.7,1.2c6.8,2.3,14.1-0.7,17.5-6.6c0.1,0,0.2,0.1,0.3,0.1&#10;&#9;c5.7,1.9,11.8-1.2,13.7-6.9c0.2-0.5,0.3-1,0.4-1.5c0,0,0.1,0,0.1,0c2.8,0.9,5.7-0.6,6.7-3.3c0.5-1.4,0.3-2.9-0.3-4.1&#10;&#9;c2.8-0.5,5.3-2.4,6.3-5.3c0.2-0.7,0.4-1.4,0.4-2.2c0,0,0.1,0,0.1,0c8.6,2.9,17.9-1.8,20.8-10.4c1.3-3.9,1-7.9-0.4-11.4&#10;&#9;C153.7,398.9,156.5,396.2,157.7,392.4z" style="fill: rgb(245, 245, 245);"/>
<path class="st8" d="M151,356.9c0,0-10.3-10-19.4,0.5c0,0-0.1,6.3,7.2,6.2c0,0,5.6-1.3,10.6,2c0,0,2-2.5,0.7-4.8&#10;&#9;C150.1,360.9,152.1,358.7,151,356.9z" style="fill: rgb(35, 31, 32);"/>
<g>
	<path class="st8" d="M341.6,279.3c0,0,15.5-6.1,31.9,18.3c0,0,3.1,4.7-2.6,5.7l-5.2-1.1c0,0,2.8,3.8,0.8,5.9c0,0-1.6,2.9-7.8,1.4&#10;&#9;&#9;c0,0-15.8,1.4-17.5,3.9c0,0-12.2-9.6-9.3-18.4C331.9,295,331.7,282.7,341.6,279.3z" style="fill: rgb(35, 31, 32);"/>
	<path class="st9" d="M352.6,284.5c0.6,1.1,0.2,2.5-0.9,3.1c-1.1,0.6-2.5,0.2-3.1-0.9c-0.6-1.1-0.2-2.5,0.9-3.1&#10;&#9;&#9;C350.7,283,352,283.4,352.6,284.5z" style="fill: rgb(255, 255, 255);"/>
</g>
<g>
	<path class="st8" d="M527.7,243.2c0,0,15.5-6.1,31.9,18.3c0,0,3.1,4.7-2.6,5.7l-5.3-1.1c0,0,2.8,3.8,0.8,5.9c0,0-1.6,2.9-7.8,1.4&#10;&#9;&#9;c0,0-15.8,1.4-17.5,3.9c0,0-12.2-9.6-9.3-18.4C518,258.8,517.8,246.5,527.7,243.2z" style="fill: rgb(35, 31, 32);"/>
	<path class="st9" d="M538.7,248.4c0.6,1.1,0.2,2.5-0.9,3.1c-1.1,0.6-2.5,0.2-3.1-0.9c-0.6-1.1-0.2-2.5,0.9-3.1&#10;&#9;&#9;C536.7,246.9,538.1,247.3,538.7,248.4z" style="fill: rgb(255, 255, 255);"/>
</g>
<g>
	<path class="st8" d="M712.1,247.4c0,0,15.8-5.2,30.8,20c0,0,2.8,4.8-2.9,5.5l-5.2-1.4c0,0,2.5,4,0.5,5.9c0,0-1.8,2.8-7.9,1&#10;&#9;&#9;c0,0-15.8,0.5-17.7,2.9c0,0-11.7-10.2-8.2-18.9C701.5,262.5,702,250.2,712.1,247.4z" style="fill: rgb(35, 31, 32);"/>
	<path class="st9" d="M722.8,253.2c0.5,1.1,0,2.5-1.1,3c-1.1,0.5-2.5,0.1-3-1.1c-0.5-1.1,0-2.5,1.1-3&#10;&#9;&#9;C720.9,251.6,722.2,252.1,722.8,253.2z" style="fill: rgb(255, 255, 255);"/>
</g>
<g>
	<path class="st8" d="M1056.5,433.5c0,0,12.8,10.6-0.6,36.7c0,0-2.6,5-6.2,0.5l-1.6-5.1c0,0-2,4.3-4.8,3.6c0,0-3.3,0-5-6.2&#10;&#9;&#9;c0,0-8.9-13.1-11.9-13.4c0,0,2.5-15.3,11.6-17C1038.1,432.6,1048.8,426.4,1056.5,433.5z" style="fill: rgb(35, 31, 32);"/>
	<path class="st9" d="M1057.3,445.7c-0.7,1-2.1,1.4-3.1,0.7c-1.1-0.7-1.4-2.1-0.7-3.1c0.7-1,2.1-1.4,3.1-0.7&#10;&#9;&#9;C1057.7,443.2,1058,444.6,1057.3,445.7z" style="fill: rgb(255, 255, 255);"/>
</g>
<g>
	<path class="st8" d="M909.8,336.8c0,0,14.9,7.4,7.8,35.9c0,0-1.4,5.4-6,1.9l-2.7-4.6c0,0-1,4.6-3.8,4.6c0,0-3.2,0.8-6.3-4.9&#10;&#9;&#9;c0,0-11.6-10.8-14.6-10.3c0,0-1.1-15.5,7.4-19.2C891.6,340.1,900.6,331.6,909.8,336.8z" style="fill: rgb(35, 31, 32);"/>
	<path class="st9" d="M913.3,348.4c-0.4,1.2-1.7,1.8-2.9,1.4c-1.2-0.4-1.8-1.7-1.4-2.9c0.4-1.2,1.7-1.8,2.9-1.4&#10;&#9;&#9;C913.1,346,913.7,347.3,913.3,348.4z" style="fill: rgb(255, 255, 255);"/>
</g>
<path class="st10" d="M347,297.1c0.1-4.8-2.7-9-6.8-10.9c0.5-1,0.8-2.2,0.8-3.4c0.1-4.6-3.6-8.3-8.1-8.4c-2.6,0-5,1.2-6.5,3&#10;&#9;c-1.1-3.1-4-5.3-7.5-5.3c-0.6,0-1.1,0-1.7,0.1c-0.8-3.6-4-6.4-7.9-6.4c-3.9-0.1-7.2,2.6-8.1,6.3c-0.6-0.2-1.3-0.3-1.9-0.3&#10;&#9;c-1,0-2,0.2-2.9,0.5c-1.9-1.9-4.4-3-7.3-3.1c-2.9,0-5.5,1.1-7.5,3c-1-0.4-2-0.7-3.1-0.7c-4.5-0.1-8.1,3.5-8.2,8c0,0.3,0,0.7,0.1,1&#10;&#9;c0,0,0,0-0.1,0c-0.9,0-1.7,0.2-2.4,0.6c-1.5-2.4-4.1-3.9-7.1-4c-2.8,0-5.2,1.2-6.8,3.2c-1.8,0.1-3.4,1.2-4.2,2.7&#10;&#9;c-0.9-0.3-1.8-0.5-2.7-0.5c-4.5-0.1-8.2,3.5-8.2,8c0,1.4,0.3,2.7,0.9,3.8c-1.3,0.5-2.3,1.4-3.1,2.5c-1.2-0.7-2.5-1.1-4-1.1&#10;&#9;c-2.6,0-5,1.2-6.5,3.2c-0.5-0.1-1-0.1-1.5-0.2c-5.7-0.1-10.3,4.4-10.4,10.1c0,0.7,0.1,1.4,0.2,2.1c-3.4,1.1-6,4.2-6,8&#10;&#9;c0,2.4,0.9,4.6,2.5,6.2c-1.7,1.8-2.7,4.2-2.7,6.9c-0.1,5.8,4.6,10.6,10.4,10.7c0.6,0,1.2,0,1.7-0.1c-0.1,0.5-0.2,1-0.2,1.6&#10;&#9;c-0.1,4.9,3.9,9,8.8,9.1c3.4,0,6.4-1.8,8-4.6c1.1,1.3,2.8,2.1,4.6,2.1c1.7,0,3.2-0.6,4.4-1.7c1.5,1.1,3.3,1.8,5.3,1.8&#10;&#9;c3,0,5.8-1.4,7.4-3.7c1.6,2.3,4.3,3.9,7.3,3.9c3.3,0,6.2-1.7,7.8-4.3c1.1,0.6,2.3,1,3.6,1c2.7,0,5.1-1.4,6.4-3.5&#10;&#9;c1.3,2.2,3.6,3.6,6.3,3.7c4.1,0.1,7.4-3.2,7.5-7.3c0-1-0.2-2-0.6-2.9c0.2,0,0.4,0.1,0.6,0.1c1.7,0,3.3-0.7,4.4-1.9&#10;&#9;c1.1,1.2,2.6,2,4.4,2c3.3,0,6-2.6,6.1-5.9c0,0,0-0.1,0-0.1c0.4,0.1,0.9,0.1,1.3,0.1c3.4,0,6.5-1.8,8-4.6c1.2,1,2.7,1.6,4.4,1.7&#10;&#9;c3.8,0,6.9-3,6.9-6.7c0,0,0-0.1,0-0.1c0.5,0.1,1,0.2,1.6,0.2c5.2,0.1,9.4-4.1,9.5-9.3c0-2.5-0.9-4.8-2.5-6.5&#10;&#9;C344.9,304.7,347,301.2,347,297.1z" style="fill: rgb(245, 245, 245);"/>
<path class="st8" d="M333.9,282.1c0,0-13.5-4.5-17.3,8.9c0,0,2.6,5.8,9.2,2.5c0,0,4.5-3.5,10.5-2.8c0,0,0.7-3.2-1.5-4.6&#10;&#9;C334.8,286.1,335.7,283.2,333.9,282.1z" style="fill: rgb(35, 31, 32);"/>
<path class="st10" d="M410.8,282.9c-0.6,1.2-0.8,2.6-0.6,4.1c0.6,3.9,4.2,6.7,8.2,6.1c0.2,0,0.3-0.1,0.5-0.1&#10;&#9;c1.4,4.5,5.9,7.4,10.8,6.7c1.8-0.3,3.5-1,4.8-2.1c1,1.6,2.7,2.6,4.6,2.6c1.4,2,3.8,3.2,6.3,2.8c2.1-0.3,3.8-1.6,4.8-3.3&#10;&#9;c1.5,1.3,3.3,2.1,5.3,2.3c0,0.5,0,0.9,0.1,1.4c0.8,5.2,5.6,8.9,10.9,8.1c1.4-0.2,2.6-0.7,3.7-1.4c1.7,2.2,4.5,3.5,7.4,3.1&#10;&#9;c3.1-0.5,5.5-2.7,6.4-5.5c1.7,1.3,3.8,2,6.1,1.6c2.8-0.4,5.1-2.3,6.2-4.7c0.8,0.1,1.6,0.2,2.4,0.1c2.1-0.3,3.8-1.4,4.9-3&#10;&#9;c1.6,0.8,3.4,1.2,5.4,0.9c1.6-0.2,3-0.9,4.2-1.8c2.2,0.7,4.6,1,7.1,0.6c8.6-1.2,14.5-9.2,13.3-17.8c-0.7-5.1-3.9-9.3-8.1-11.6&#10;&#9;c0.7-1.5,1-3.2,0.8-4.9c-0.2-1.7-1-3.3-2.1-4.5c0.5,0,0.9,0,1.4-0.1c4.8-0.7,8.2-5.2,7.5-10c-0.6-4.1-3.8-7-7.7-7.5&#10;&#9;c0.1-1,0.1-1.9-0.1-2.9c-1.1-7.3-7.9-12.4-15.2-11.4c-2,0.3-3.9,1-5.5,2.1c-3.1-4.1-8.2-6.4-13.6-5.6c-4,0.6-7.3,2.7-9.6,5.7&#10;&#9;c-2-1.8-4.7-2.7-7.5-2.3c-2.4,0.3-4.4,1.6-5.8,3.3c-1.8-1.3-4.1-1.9-6.5-1.5c-3.6,0.5-6.4,3.1-7.4,6.3c-1.1-0.8-2.6-1.2-4.1-1&#10;&#9;c-0.6,0.1-1.2,0.3-1.7,0.6c-1.2-4.1-5.3-6.8-9.7-6.2c-3.1,0.4-5.6,2.4-6.8,5.1c-1.1-0.3-2.3-0.5-3.5-0.3c-3.5,0.5-6.1,3.3-6.6,6.6&#10;&#9;c-0.1,0-0.2,0-0.3,0c-5.5,0.8-9.4,6-8.6,11.5c0.4,2.8,1.9,5.2,4,6.7c-2.3,0.4-4,2.3-4.2,4.6c-0.1,0-0.1,0-0.2,0&#10;&#9;c-4.7,0.7-7.9,5-7.2,9.6C405.8,279.3,408,281.8,410.8,282.9z" style="fill: rgb(245, 245, 245);"/>
<path class="st8" d="M525,247.9c0,0-13.6-4.5-17.3,8.9c0,0,2.6,5.8,9.2,2.5c0,0,4.5-3.5,10.5-2.8c0,0,0.7-3.2-1.5-4.6&#10;&#9;C525.9,251.9,526.8,249,525,247.9z" style="fill: rgb(35, 31, 32);"/>
<path class="st10" d="M716.3,261.5c0-1.7-0.4-3.4-1.3-5c-1.4-2.6-3.7-4.5-6.3-5.3c0.5-2,0.3-4.2-0.7-6.1c-1.9-3.5-5.8-5.3-9.6-4.4&#10;&#9;c0.2-1.8-0.1-3.8-1-5.5c-2.4-4.7-8.2-6.5-12.9-4c-1.3,0.7-2.4,1.7-3.3,2.8c-2.1-1.7-5.2-2.1-7.8-0.7c-0.1,0-0.1,0.1-0.2,0.1&#10;&#9;c-0.2-0.7-0.4-1.3-0.7-2c-2.3-4.4-7.7-6.1-12.1-3.8c-1.4,0.7-2.6,1.8-3.4,3.1c-1.3-0.1-2.7,0.1-4,0.8c-1.3,0.7-2.2,1.6-2.9,2.8&#10;&#9;c-1.7-1.3-3.9-1.8-6-1.3c-0.7-0.5-1.6-0.8-2.5-0.8c-0.2-1.5-0.6-3-1.3-4.4c-3.2-6.1-10.7-8.4-16.7-5.2c-2.4,1.3-4.2,3.2-5.3,5.5&#10;&#9;c-2.1-1.2-4.8-1.4-7.2-0.1c-1.2,0.6-2.2,1.6-2.9,2.7c-3.8-2.5-8.9-2.9-13.2-0.6c-6.4,3.4-8.9,11.3-5.5,17.7c1.3,2.5,3.3,4.4,5.7,5.6&#10;&#9;c-4.2,3-5.6,8.6-3.2,13.3c1.4,2.8,4,4.6,6.8,5.3c-1.4,2.6-1.6,5.9-0.1,8.7c2.1,4,6.8,5.8,10.9,4.5c-0.5,2.1-0.2,4.4,0.9,6.5&#10;&#9;c2.4,4.7,8.2,6.5,12.9,4c2-1,3.5-2.7,4.3-4.6c0.2,0.7,0.4,1.3,0.7,2c2.1,3.9,6.9,5.5,10.9,3.4c0,0,0,0,0,0c-0.3,1.9,0.1,4,1,5.9&#10;&#9;c2.5,4.8,8.5,6.7,13.3,4.2c3.7-2,5.7-6,5.2-9.9c0.9-0.2,1.8-0.5,2.6-0.9c1.6-0.8,2.8-2,3.7-3.5c2.5,1.6,5.7,1.9,8.5,0.5&#10;&#9;c1.1-0.6,2.1-1.4,2.8-2.4c0.7,0.1,1.5,0,2.2-0.1c3.1,3.1,8.1,4,12.2,1.9c0.3-0.1,0.5-0.3,0.8-0.5c0,0,0,0,0,0&#10;&#9;c2.3,4.4,7.7,6.1,12.1,3.8c3.1-1.6,4.9-4.9,4.8-8.2c3.6,1.6,7.8,1.6,11.6-0.4c6.6-3.4,9.1-11.5,5.7-18.1&#10;&#9;C723.7,264.7,720.2,262.2,716.3,261.5z" style="fill: rgb(245, 245, 245);"/>
<path class="st8" d="M704.6,247.9c0,0-13.5-4.5-17.3,8.9c0,0,2.6,5.8,9.2,2.5c0,0,4.5-3.5,10.5-2.8c0,0,0.7-3.2-1.5-4.6&#10;&#9;C705.5,251.9,706.4,249,704.6,247.9z" style="fill: rgb(35, 31, 32);"/>
<path class="st10" d="M849,276.3c3.7,1.9,5.1,6.4,3.2,10c-0.1,0.1-0.1,0.2-0.2,0.3c0.6,0.1,1.2,0.3,1.8,0.6c1.5,0.8,2.5,2.1,3,3.6&#10;&#9;c2.2-1.8,5.3-2.2,7.9-0.8c2.9,1.5,4.4,4.7,3.8,7.8c1.7-1,3.9-1.1,5.8-0.1c0.5,0.2,0.9,0.5,1.2,0.9c2.7-2.6,6.9-3.3,10.4-1.5&#10;&#9;c4,2.1,5.8,6.6,4.5,10.7c0.1,0.1,0.2,0.1,0.3,0.1c1.2,0.6,2.2,1.6,2.8,2.7c2.7-2.3,6.7-2.9,10.1-1.1c4.5,2.3,6.2,7.8,3.9,12.3&#10;&#9;c-0.1,0.1-0.1,0.2-0.2,0.3c1.4,1.5,1.9,3.8,1.1,5.8c0.6,0.1,1.1,0.3,1.6,0.6c3.5,1.8,4.9,6.2,3.1,9.8c-1.1,2.1-3,3.4-5.2,3.8&#10;&#9;c-0.1,1-0.4,2.1-0.9,3.1c-1.5,2.9-4.4,4.6-7.5,4.8c-0.1,0.6-0.3,1.2-0.6,1.8c-1.1,2-3.1,3.2-5.2,3.2c0.5,2.2,0.3,4.5-0.8,6.7&#10;&#9;c-2.5,4.8-8.3,6.6-13.1,4.2c-0.6-0.3-1.1-0.6-1.6-1c-2.8,2.9-7.4,3.8-11.2,1.8c-4.7-2.4-6.5-8.2-4.1-12.8c0.2-0.3,0.3-0.6,0.5-0.9&#10;&#9;c-0.3-0.1-0.7-0.3-1-0.4c-1-0.5-1.8-1.2-2.5-2c-2.4,2-5.9,2.5-8.8,0.9c-1.8-1-3.2-2.5-3.8-4.3c0,0.1-0.1,0.1-0.1,0.2&#10;&#9;c-2.8,5.4-9.4,7.5-14.8,4.7c-5.4-2.8-7.5-9.4-4.7-14.8c0.1-0.2,0.2-0.3,0.3-0.5c-0.6,0.1-1.1,0.2-1.7,0.1c-2.8,3.5-7.7,4.7-11.9,2.6&#10;&#9;c-4.1-2.1-6-6.7-4.8-11c-3.8,1.3-8.1,1.1-12-0.9c-7.5-3.9-10.4-13.1-6.6-20.6c-5.3-2.8-7.4-9.3-4.6-14.6c2.4-4.6,7.7-6.8,12.5-5.5&#10;&#9;c0-2,0.4-4,1.4-5.8c3.2-6.1,10.6-8.5,16.7-5.3c1.6,0.8,2.9,2,4,3.3c2-2,5.2-2.5,7.8-1.2c0.1,0,0.1,0.1,0.2,0.1&#10;&#9;c2.2-2.5,5.9-3.3,9-1.7c0.8,0.4,1.4,0.9,2,1.5C842.6,275.4,846,274.8,849,276.3z" style="fill: rgb(245, 245, 245);"/>
<path class="st8" d="M899.9,330.9c0,0-12.2-7.4-18.8,4.8c0,0,1.3,6.2,8.4,4.5c0,0,5.1-2.5,10.8-0.4c0,0,1.4-2.9-0.4-4.8&#10;&#9;C899.9,335,901.4,332.4,899.9,330.9z" style="fill: rgb(35, 31, 32);"/>
<path class="st10" d="M1047.1,447.3c-2.2,2.7-6.2,3.1-8.9,0.9c-0.1-0.1-0.1-0.1-0.2-0.2c0.1,2.4-0.6,4.8-2.2,6.7&#10;&#9;c-3.5,4.3-9.8,5-14.1,1.5c-3-2.5-4.3-6.3-3.5-9.9c-1.2-0.3-2.3-0.9-3.3-1.7c-0.3-0.3-0.6-0.5-0.9-0.8c0,0,0,0.1-0.1,0.1&#10;&#9;c-2.3,2.8-6.5,3.3-9.3,1c-1.5-1.2-2.3-3-2.4-4.8c-0.5-0.2-1.1-0.4-1.5-0.8c-0.8-0.6-1.3-1.4-1.5-2.3c-1.9,1.7-4.5,2.3-6.9,1.7&#10;&#9;c-2.5,1.2-5.5,1-7.8-0.8c-0.9-0.7-1.5-1.6-2-2.6c-4,4.5-10.9,5.1-15.6,1.3c-3.8-3-5-8-3.6-12.3c-1.7,0-3.4-0.6-4.8-1.8&#10;&#9;c-2.9-2.3-3.7-6.3-2.1-9.5c-0.7-0.3-1.5-0.7-2.1-1.2c-3.4-2.7-3.9-7.7-1.1-11.1c0.2-0.2,0.3-0.4,0.5-0.6c-0.8-0.3-1.6-0.7-2.3-1.3&#10;&#9;c-3-2.5-3.7-6.8-1.5-10c-1.3-2.4-1.2-5.4,0.7-7.7c0.1-0.1,0.2-0.3,0.4-0.4c-2.3-3.7-2.2-8.5,0.7-12.1c3.2-4,8.8-4.9,13.2-2.5&#10;&#9;c4.4-3.9,11.1-4.1,15.8-0.3c1.6,1.3,2.8,3,3.6,4.8c0.2-0.4,0.5-0.8,0.8-1.2c3.3-4,9.2-4.7,13.3-1.4c1.3,1.1,2.3,2.5,2.9,4&#10;&#9;c1.4,0.2,2.7,0.7,3.9,1.6c0.4-1.7,1.1-3.3,2.3-4.7c3.9-4.9,11.1-5.6,15.9-1.6c2.4,1.9,3.7,4.6,4.1,7.4c1.1,0.2,2.1,0.6,3,1.3&#10;&#9;c1.2,1,2,2.3,2.3,3.8c1.8,0.4,3.6,1.3,5.1,2.5c4,3.2,5.5,8.3,4.4,13c1.2,0.1,2.3,0.6,3.3,1.4c2.1,1.7,2.9,4.4,2.2,6.9&#10;&#9;c0.6,0.3,1.3,0.7,1.8,1.2c3.4,2.8,4.4,7.4,2.6,11.2c1.9,0.2,3.8,0.9,5.5,2.3c4.5,3.6,5.1,10.2,1.5,14.6c-0.1,0.2-0.3,0.3-0.4,0.5&#10;&#9;c0,0,0,0,0,0c3.9,3.2,4.5,8.9,1.3,12.8C1056.7,449.9,1051,450.4,1047.1,447.3z" style="fill: rgb(245, 245, 245);"/>
<path class="st8" d="M1053.5,434.1c0,0-5.1-13.4-17.8-7.8c0,0-2.8,5.7,3.9,8.7c0,0,5.6,1.2,8.8,6.4c0,0,2.9-1.5,2.6-4&#10;&#9;C1051,437.3,1053.8,436.2,1053.5,434.1z" style="fill: rgb(35, 31, 32);"/>
<path d="M 98.199999 643 A 18.6 18.6 0 0 1 79.599998 661.6 A 18.6 18.6 0 0 1 60.999998 643 A 18.6 18.6 0 0 1 79.599998 624.4 A 18.6 18.6 0 0 1 98.199999 643 Z" class="st2" style="fill: rgb(38, 66, 75);"/>
<path d="M 203.4 617.799988 A 12.9 12.9 0 0 1 190.5 630.699987 A 12.9 12.9 0 0 1 177.6 617.799988 A 12.9 12.9 0 0 1 190.5 604.899988 A 12.9 12.9 0 0 1 203.4 617.799988 Z" class="st2" style="fill: rgb(38, 66, 75);"/>
<path d="M 236.700003 720.400024 A 28.4 28.4 0 0 1 208.300003 748.800024 A 28.4 28.4 0 0 1 179.900003 720.400024 A 28.4 28.4 0 0 1 208.300003 692.000025 A 28.4 28.4 0 0 1 236.700003 720.400024 Z" class="st2" style="fill: rgb(38, 66, 75);"/>
<path d="M 384.4 692 A 18.9 18.9 0 0 1 365.5 710.9 A 18.9 18.9 0 0 1 346.6 692 A 18.9 18.9 0 0 1 365.5 673.1 A 18.9 18.9 0 0 1 384.4 692 Z" class="st2" style="fill: rgb(38, 66, 75);"/>
<path class="st11" d="M455.7,562.2c0,9.8-8,17.8-17.8,17.8c-9.8,0-17.8-8-17.8-17.8c0-9.8,8-17.8,17.8-17.8&#10;&#9;C447.7,544.4,455.7,552.4,455.7,562.2z" style="fill: rgb(35, 62, 71);"/>
<path d="M 580.399975 570.200012 A 16.299999 16.299999 0 0 1 564.099976 586.500011 A 16.299999 16.299999 0 0 1 547.799976 570.200012 A 16.299999 16.299999 0 0 1 564.099976 553.900013 A 16.299999 16.299999 0 0 1 580.399975 570.200012 Z" class="st11" style="fill: rgb(35, 62, 71);"/>
<path d="M 589.499975 692 A 18.9 18.9 0 0 1 570.599976 710.9 A 18.9 18.9 0 0 1 551.699976 692 A 18.9 18.9 0 0 1 570.599976 673.1 A 18.9 18.9 0 0 1 589.499975 692 Z" class="st11" style="fill: rgb(35, 62, 71);"/>
<path d="M 745.599987 586.599976 A 18.299999 18.299999 0 0 1 727.299988 604.899975 A 18.299999 18.299999 0 0 1 708.999989 586.599976 A 18.299999 18.299999 0 0 1 727.299988 568.299976 A 18.299999 18.299999 0 0 1 745.599987 586.599976 Z" class="st11" style="fill: rgb(35, 62, 71);"/>
<path d="M 774.200001 702.200012 A 18.200001 18.200001 0 0 1 756 720.400013 A 18.200001 18.200001 0 0 1 737.799999 702.200012 A 18.200001 18.200001 0 0 1 756 684.000011 A 18.200001 18.200001 0 0 1 774.200001 702.200012 Z" class="st11" style="fill: rgb(35, 62, 71);"/>
<path d="M 853.499988 648.299988 A 13.2 13.2 0 0 1 840.299988 661.499988 A 13.2 13.2 0 0 1 827.099988 648.299988 A 13.2 13.2 0 0 1 840.299988 635.099988 A 13.2 13.2 0 0 1 853.499988 648.299988 Z" class="st11" style="fill: rgb(35, 62, 71);"/>
<path d="M 879.999988 734.700012 A 13.2 13.2 0 0 1 866.799988 747.900012 A 13.2 13.2 0 0 1 853.599988 734.700012 A 13.2 13.2 0 0 1 866.799988 721.500012 A 13.2 13.2 0 0 1 879.999988 734.700012 Z" class="st11" style="fill: rgb(35, 62, 71);"/>
<path d="M 987.200012 604.900024 A 11 11 0 0 1 976.200012 615.900024 A 11 11 0 0 1 965.200012 604.900024 A 11 11 0 0 1 976.200012 593.900024 A 11 11 0 0 1 987.200012 604.900024 Z" class="st5" style="fill: rgb(48, 79, 89);"/>
<path class="st5" d="M1011.7,675.1c0,9.3-7.6,16.9-16.9,16.9c-9.3,0-16.9-7.6-16.9-16.9c0-9.3,7.6-16.9,16.9-16.9&#10;&#9;C1004.1,658.2,1011.7,665.8,1011.7,675.1z" style="fill: rgb(48, 79, 89);"/>
<path d="M 1058.800049 568.299988 A 18 18 0 0 1 1040.800049 586.299988 A 18 18 0 0 1 1022.800049 568.299988 A 18 18 0 0 1 1040.800049 550.299988 A 18 18 0 0 1 1058.800049 568.299988 Z" class="st5" style="fill: rgb(48, 79, 89);"/>
<path class="st5" d="M1075.4,683.9c0,7.9-6.4,14.3-14.3,14.3c-7.9,0-14.3-6.4-14.3-14.3c0-7.9,6.4-14.3,14.3-14.3&#10;&#9;C1069,669.6,1075.4,676,1075.4,683.9z" style="fill: rgb(48, 79, 89);"/>
<path d="M 1075.400049 751.299988 A 16.6 16.6 0 0 1 1058.800049 767.899988 A 16.6 16.6 0 0 1 1042.200048 751.299988 A 16.6 16.6 0 0 1 1058.800049 734.699987 A 16.6 16.6 0 0 1 1075.400049 751.299988 Z" class="st5" style="fill: rgb(48, 79, 89);"/>
<path d="M 932.999975 580 A 13.9 13.9 0 0 1 919.099976 593.9 A 13.9 13.9 0 0 1 905.199976 580 A 13.9 13.9 0 0 1 919.099976 566.1 A 13.9 13.9 0 0 1 932.999975 580 Z" class="st5" style="fill: rgb(48, 79, 89);"/>
</svg>